PathFileType	4	(X/Y/Z)	C:/Users/opensim2020/Desktop/walking_exp_matlab/subject01_walking08_straight_03.trc	
DataRate	CameraRate	NumFrames	NumMarkers	Units	OrigDataRate	OrigDataStartFrame	OrigNumFrames	
100.00	100.00	7	43	mm	100.00	2995	326	
Frame#	Time	LFHD			RFHD			LBHD			RBHD			C7			T10			CLAV			STRN			RBAK			LSHO			LUPA			LELB			LFRM			LWRA			LWRB			LFIN			RSHO			RUPA			RELB			RFRM			RWRA			RWRB			RFIN			LASI			RASI			LPSI			RPSI			LTHI			LKNE			LTIB			LANK			LHEE			LTOE			RTHI			RKNE			RTIB			RANK			RHEE			RTOE			*39			*40			*41			*42			
		X1	Y1	Z1	X2	Y2	Z2	X3	Y3	Z3	X4	Y4	Z4	X5	Y5	Z5	X6	Y6	Z6	X7	Y7	Z7	X8	Y8	Z8	X9	Y9	Z9	X10	Y10	Z10	X11	Y11	Z11	X12	Y12	Z12	X13	Y13	Z13	X14	Y14	Z14	X15	Y15	Z15	X16	Y16	Z16	X17	Y17	Z17	X18	Y18	Z18	X19	Y19	Z19	X20	Y20	Z20	X21	Y21	Z21	X22	Y22	Z22	X23	Y23	Z23	X24	Y24	Z24	X25	Y25	Z25	X26	Y26	Z26	X27	Y27	Z27	X28	Y28	Z28	X29	Y29	Z29	X30	Y30	Z30	X31	Y31	Z31	X32	Y32	Z32	X33	Y33	Z33	X34	Y34	Z34	X35	Y35	Z35	X36	Y36	Z36	X37	Y37	Z37	X38	Y38	Z38	X39	Y39	Z39	X40	Y40	Z40	X41	Y41	Z41	X42	Y42	Z42	X43	Y43	Z43	

286	2.850	-1097.84680	926.42072	1678.16174	-982.73383	931.46448	1684.18713	-1098.46960	813.36694	1624.61853	-976.75885	815.93494	1629.69678	-1061.13696	777.58636	1437.85547	-1051.21460	741.68622	1144.64514	-1046.42871	920.20081	1370.18225	-1049.30347	964.30389	1215.31470	-987.01099	717.31549	1242.47205	-1212.17090	877.85858	1400.04663	-1300.94495	882.39539	1217.13721	-1306.88818	901.90149	1066.03723	-1319.19678	977.84344	977.20526	-1281.88208	1086.99512	896.88361	-1315.22156	1042.78088	873.70642	-1313.38123	1112.34314	825.18121	-900.59424	844.80933	1396.41846	-808.16241	773.59961	1196.48572	-808.49640	769.24884	1071.53955	-776.63965	790.30371	953.33014	-788.22699	869.59088	835.11981	-754.30536	822.43066	836.58533	-753.37927	858.55865	758.52228	-1144.46167	919.23895	936.18164	-927.87561	909.84058	945.19293	-1096.42639	730.12939	945.95441	-950.76050	727.91510	947.87433	-1189.07690	887.19043	601.68683	-1169.86145	875.48456	467.27087	-1174.77075	811.45056	287.61887	-1123.36951	760.85474	76.25053	-1071.34290	712.07745	48.89371	-1128.98169	905.79584	38.72974	-858.57477	952.57037	624.52362	-880.96362	1005.89825	474.09869	-883.73755	936.37415	311.74115	-938.33984	893.75140	111.38898	-997.73218	849.74756	76.21697	-918.26190	1022.45477	57.58533	-1006.33173	918.02344	1716.44849	-3101.87598	1973.19434	1023.45386	-3140.66357	2012.53137	1022.02405			 
287	2.860	-1097.13818	932.60565	1677.98633	-982.09045	937.39203	1683.90283	-1098.13977	819.63190	1624.23389	-976.28418	821.91455	1629.21851	-1060.88684	784.10406	1437.53015	-1050.91602	748.18689	1144.30066	-1046.01953	926.67804	1369.83276	-1049.06152	970.81500	1214.96411	-986.89270	723.86633	1242.10449	-1211.78259	884.63599	1399.80212	-1300.71008	890.22333	1217.18103	-1306.66565	910.42328	1066.03113	-1318.53284	987.48132	978.02539	-1280.85938	1097.50000	899.19153	-1314.19336	1053.67297	875.36041	-1311.94055	1123.82813	827.68976	-900.22064	851.03729	1395.97485	-808.27887	779.18390	1196.08643	-808.76794	774.49426	1071.26074	-776.93988	795.15302	952.92981	-788.08447	874.25586	834.56317	-754.40387	826.85938	836.04962	-753.37457	862.80298	757.99670	-1144.59436	925.06451	935.58240	-927.77881	916.61212	944.99548	-1096.09119	736.49396	945.57220	-950.47760	734.64581	947.73206	-1188.87244	891.25690	601.30145	-1169.97839	878.32288	466.83734	-1174.76257	813.30676	287.57779	-1123.28760	761.14386	76.50956	-1071.36450	712.08514	49.30568	-1129.06580	905.84698	38.85199	-859.01990	957.49847	623.66046	-881.54669	1013.00189	474.10883	-883.48297	948.85004	309.62741	-937.16083	915.39563	107.00861	-996.62921	873.01660	69.88986	-916.91272	1046.28418	58.21789	-1005.66467	923.92261	1716.14612	-3101.98633	1973.05115	1023.46057	-3140.70825	2012.56775	1022.00079			 
288	2.870	-1096.35132	938.78302	1677.70703	-981.36456	943.38922	1683.58545	-1097.67029	825.94019	1623.83130	-975.87799	827.92352	1628.65820	-1060.59778	790.55438	1437.16956	-1050.58179	754.73950	1143.90759	-1045.50171	933.16650	1369.45813	-1048.73633	977.24445	1214.61035	-986.78217	730.37762	1241.59717	-1211.28491	891.34106	1399.49500	-1300.38867	898.04425	1217.10986	-1306.34241	918.84833	1065.94275	-1317.81641	997.07086	978.81714	-1279.72937	1107.85706	901.39783	-1313.12854	1064.38721	876.92554	-1310.66077	1135.16602	830.21277	-899.76703	857.22766	1395.50708	-808.34277	784.82825	1195.65320	-808.89111	779.90973	1070.86121	-777.02881	800.03455	952.45563	-787.91327	878.88379	833.90900	-754.70905	831.09821	835.37903	-753.35828	866.96100	757.24152	-1144.51733	931.20526	935.03369	-927.64844	923.50702	944.73480	-1095.61035	742.86047	945.32367	-950.00916	741.37531	947.53552	-1188.65955	895.45587	600.88373	-1170.02466	881.42120	466.33716	-1174.71228	815.29980	287.51920	-1123.34985	761.44092	76.69659	-1071.26416	712.26184	49.71187	-1129.12976	905.66516	38.79594	-859.03784	963.29834	622.87994	-882.22296	1019.60522	473.98239	-883.25177	961.15009	307.53342	-935.91577	936.55823	103.09512	-995.28821	895.75702	64.11148	-915.28119	1069.57422	59.91365	-1004.86011	929.85699	1715.83044	-3101.88843	1973.16614	1023.39447	-3140.62720	2012.48315	1021.93561			 
289	2.880	-1095.55566	944.97412	1677.49390	-980.51849	949.33850	1683.27917	-1097.07910	832.19525	1623.41675	-975.29584	833.97290	1628.17249	-1060.03271	797.00854	1436.79724	-1049.97888	761.30750	1143.54565	-1044.96753	939.64746	1369.08203	-1048.41309	983.73547	1214.22070	-986.53052	736.90875	1241.05774	-1210.72815	897.97992	1399.19470	-1299.85962	905.76569	1216.93835	-1305.92419	927.28064	1065.86047	-1316.97766	1006.46704	979.49475	-1278.51050	1118.05835	903.50549	-1311.89099	1074.92517	878.39008	-1309.26978	1146.16296	832.50629	-899.37982	863.53131	1395.11035	-808.24268	790.53705	1195.20483	-809.01068	785.46790	1070.46631	-777.05103	805.07397	951.98346	-787.74042	883.52875	833.15778	-754.65247	835.66516	834.79602	-753.24304	871.36444	756.57367	-1144.40527	937.36243	934.49066	-927.54730	930.49207	944.42773	-1095.01355	749.27698	945.16479	-949.45770	748.17096	947.29901	-1188.38257	899.86786	600.47308	-1169.99829	884.74060	465.82474	-1174.56104	817.43542	287.40564	-1123.19934	761.85583	77.04330	-1071.27942	712.40137	50.22485	-1129.17310	905.72522	38.77181	-858.96942	968.67883	622.05292	-883.05029	1025.88635	473.65771	-883.02222	973.39343	305.62439	-934.57129	957.46204	99.67584	-993.82141	919.10291	58.84715	-913.50745	1091.97595	61.40979	-1004.01642	935.82434	1715.49646	-3101.83447	1973.11182	1023.51166	-3140.63452	2012.43152	1021.93677			 
290	2.890	-1094.74927	951.15027	1677.21509	-979.54590	955.38672	1683.02771	-1096.37708	838.47919	1623.00012	-974.61682	840.10492	1627.65771	-1059.52686	803.48328	1436.31470	-1049.33313	767.89417	1143.07190	-1044.30078	946.09998	1368.65063	-1047.95117	990.21552	1213.76929	-986.17865	743.43414	1240.45190	-1209.80750	904.58069	1398.68677	-1299.30347	913.38965	1216.77258	-1305.32556	935.61163	1065.70337	-1316.21729	1015.57959	980.12268	-1277.20300	1128.05005	905.46600	-1310.57153	1085.27625	879.78827	-1307.60352	1157.08154	834.75061	-898.75073	869.85071	1394.60291	-808.03412	796.30798	1194.72522	-808.92053	791.04669	1069.94556	-777.00195	810.10986	951.37769	-787.67365	888.09265	832.18439	-754.33728	840.60461	834.19464	-753.04297	875.81738	755.85394	-1144.30676	943.45990	933.89850	-927.46967	937.61591	944.03998	-1094.29431	755.68134	944.81708	-948.76105	755.10150	947.18524	-1188.05432	904.44330	599.95502	-1169.90149	888.15015	465.23981	-1174.41687	819.55750	287.35364	-1123.19775	762.15021	77.36607	-1071.14478	712.52063	51.00676	-1129.46509	906.05670	38.94512	-858.84698	974.25574	621.30463	-883.64655	1032.09692	473.14926	-882.74146	985.34906	303.41241	-933.17712	977.82904	96.58582	-992.28790	940.97662	54.44987	-911.77155	1113.63391	63.33438	-1003.20416	941.82037	1715.17871	-3101.88843	1973.08850	1023.38684	-3140.75879	2012.43787	1022.00159			 
291	2.900	-1093.77234	957.33789	1676.96130	-978.64172	961.43097	1682.61096	-1095.60669	844.73474	1622.55579	-973.88037	846.13062	1627.17847	-1058.83862	810.02863	1435.84985	-1048.63989	774.43933	1142.56689	-1043.54919	952.58362	1368.26941	-1047.46558	996.79376	1213.35022	-985.64563	750.07629	1239.78271	-1209.21533	911.05579	1398.41345	-1298.71606	920.88092	1216.64587	-1304.60120	943.85913	1065.58777	-1315.12463	1024.81189	980.72913	-1275.82361	1137.84534	907.36194	-1309.22791	1095.43079	881.12427	-1306.09155	1167.68445	836.90179	-897.91779	876.08124	1394.02563	-807.67914	802.14276	1194.17041	-808.70044	796.75885	1069.44006	-776.83752	815.38672	950.85901	-787.35388	892.96338	831.32294	-754.14197	845.51617	833.52161	-752.88062	880.27039	754.81525	-1144.22839	949.66425	933.32581	-927.37946	944.68799	943.54828	-1093.52283	762.05682	944.37854	-948.01782	762.01312	947.06964	-1187.60986	909.16193	599.34082	-1169.72632	891.63416	464.64240	-1174.26587	821.62067	287.35156	-1123.12390	762.53406	77.85200	-1070.92004	712.75659	51.68848	-1129.18042	905.65295	38.72168	-858.79614	979.56000	620.25592	-884.24542	1038.05957	472.36819	-882.44244	996.95587	301.56674	-931.72772	997.65692	94.66859	-990.81891	961.87604	50.86892	-910.30206	1134.48340	65.68584	-1002.24359	947.81787	1714.85559	-3101.96313	1973.15710	1023.41803	-3140.73804	2012.42944	1022.01569			 
292	2.910	-1092.71362	963.53815	1676.62317	-977.64795	967.44269	1682.29346	-1094.78381	850.99707	1622.10938	-973.09131	852.26379	1626.76477	-1057.87549	816.47266	1435.43066	-1047.84705	781.07269	1142.09277	-1042.72424	959.05695	1367.82764	-1046.90247	1003.35297	1212.94043	-984.99615	756.77338	1239.06775	-1208.43164	917.51318	1398.02283	-1297.80908	928.29156	1216.39819	-1303.84290	952.00073	1065.42871	-1314.00342	1033.79919	981.29193	-1274.38452	1147.45544	909.15033	-1307.69617	1105.35901	882.41071	-1304.47388	1178.04590	838.98517	-897.01154	882.51343	1393.47205	-807.27020	808.10400	1193.57007	-808.27368	802.54492	1068.89368	-776.47839	820.77380	950.26678	-786.93439	898.04895	830.47742	-754.06122	850.51904	832.94977	-752.48572	885.16431	754.15356	-1144.14038	955.88068	932.75067	-927.29419	951.83551	943.06494	-1092.66516	768.46979	944.02380	-947.26630	768.99390	946.75116	-1187.12817	913.95264	598.70764	-1169.56262	895.12042	464.07297	-1174.06738	823.58136	287.37036	-1123.19666	762.88251	78.33267	-1070.84790	712.89465	52.32047	-1129.11438	905.74066	38.52356	-858.59851	984.92371	619.30945	-884.47644	1044.46204	471.90985	-881.91956	1008.86914	300.26859	-930.47791	1016.53552	92.57719	-988.77240	983.42517	47.27763	-908.60760	1154.74011	68.29773	-1001.24591	953.86725	1714.46570	-3101.97192	1973.06860	1023.82184	-3140.73145	2012.51538	1022.04639			 
